<svg width="177" height="71" viewBox="0 0 177 71" fill="none" xmlns="http://www.w3.org/2000/svg">
<g filter="url(#filter0_d_78_763)">
<path fill-rule="evenodd" clip-rule="evenodd" d="M93.2084 52.7784V37.2668L75.217 30.2818L84.6598 21.0905L72.2841 10.0879L68.7743 16.8224L68.9089 10.348L53.2253 15.3676L53.6292 23.8074L56.2928 23.1137L59.0622 52.894L70.1205 51.2657L70.1013 41.3229L93.2084 52.7784Z" fill="#0B0000"/>
<path fill-rule="evenodd" clip-rule="evenodd" d="M56.1768 17.534L65.7061 14.6919L66.2927 24.5287L73.3124 14.6533L80.1685 21.1951L70.5814 31.321L90.3133 39.1539V48.1621L67.3889 36.6682L67.4274 48.7113L61.4944 49.5206L58.9654 19.3935L56.2922 20.0872L56.1768 17.534Z" fill="white"/>
<path fill-rule="evenodd" clip-rule="evenodd" d="M128.43 11.5708H118.045L117.747 13.2761H106.823L101.717 44.5593L114.179 46.5248L114.862 42.0351L118.122 48.0567L120.103 44.2125L120.834 50.5231L134.959 53.0184L128.43 11.5708Z" fill="#0B0000"/>
<path fill-rule="evenodd" clip-rule="evenodd" d="M120.777 14.4624H126.065L131.421 49.3104L123.613 48.1157L121.536 34.3287L118.603 41.9304L114.199 32.4307H114.151L112.411 43.443L105.093 42.1616L109.449 16.0714H116.853L118.7 26.1876L120.777 14.4624Z" fill="white"/>
<path fill-rule="evenodd" clip-rule="evenodd" d="M141.653 14.4229L157.279 17.8624L158.443 23.6431L159.702 18.4308L173.001 21.6584L160.231 60.206L150.432 57.1133L150.356 53.2499L140.951 51.93L144.124 23.6431L141.769 23.1132L141.653 14.4229Z" fill="#0B0000"/>
<path fill-rule="evenodd" clip-rule="evenodd" d="M144.432 18.0354L154.616 20.0875L158.049 36.3699L161.558 21.7736L169.309 23.4982L158.395 56.6216L152.971 54.9933L152.5 34.9729L149.769 50.417L143.855 49.4824L146.509 21.4364L144.279 20.839L144.432 18.0354Z" fill="white"/>
<path fill-rule="evenodd" clip-rule="evenodd" d="M140.153 47.4784C136.778 48.7501 133.191 48.6056 130.306 47.0641C127.633 45.6478 125.767 43.191 125.046 40.1561C123.604 34.1057 127.595 27.1977 133.941 24.7602C137.355 23.4692 140.97 23.6233 143.874 25.1745C146.519 26.5811 148.365 28.9801 149.067 31.9283C150.538 38.0654 146.548 45.0408 140.153 47.4784Z" fill="#0B0000"/>
<path fill-rule="evenodd" clip-rule="evenodd" d="M146.594 32.4881C145.44 27.6323 140.266 25.1947 134.958 27.1987C129.814 29.1738 126.439 34.7522 127.602 39.608C128.795 44.6179 133.92 47.0458 139.228 45.0418C144.411 43.0764 147.786 37.4595 146.594 32.4881Z" fill="white"/>
<path fill-rule="evenodd" clip-rule="evenodd" d="M142.738 33.3441C142.633 36.0225 140.306 38.0457 137.459 37.9301C134.661 37.8145 132.507 35.6178 132.613 32.9394C132.719 30.4248 135.036 28.4016 137.882 28.5172C140.69 28.6328 142.844 30.8295 142.738 33.3441Z" fill="#0B0000"/>
<path fill-rule="evenodd" clip-rule="evenodd" d="M139.122 28.6329C137.42 28.5654 135.997 29.7409 135.929 31.2535C135.872 32.7661 137.199 34.0571 138.901 34.1246C140.603 34.192 142.026 33.0166 142.093 31.504C142.151 29.9914 140.824 28.7003 139.122 28.6329Z" fill="white"/>
<path fill-rule="evenodd" clip-rule="evenodd" d="M54.0027 50.8518C50.5506 52.3163 46.81 52.3163 43.7425 50.8422C40.9058 49.4741 38.8576 47.0077 37.9826 43.8765C36.2325 37.6429 40.0885 30.2918 46.5888 27.4882C50.0794 26.0141 53.8489 26.0141 56.9356 27.5074C59.7434 28.8563 61.7628 31.2745 62.6186 34.3094C64.4072 40.6296 60.5415 48.0578 54.0027 50.8518Z" fill="#0B0000"/>
<path fill-rule="evenodd" clip-rule="evenodd" d="M60.1474 34.6944C58.7242 29.6459 53.2046 27.3144 47.7236 29.6459C42.406 31.9389 39.1077 37.9316 40.5309 42.9801C41.9925 48.1923 47.4736 50.5143 52.9546 48.1923C58.3107 45.8993 61.609 39.8585 60.1474 34.6944Z" fill="white"/>
<path fill-rule="evenodd" clip-rule="evenodd" d="M56.4366 35.6571C56.4366 38.3355 54.1961 40.4455 51.3498 40.4455C48.5515 40.4455 46.311 38.3355 46.311 35.6571C46.311 33.1425 48.5515 31.0229 51.3979 31.0229C54.1961 31.0229 56.4366 33.1329 56.4366 35.6571Z" fill="#0B0000"/>
<path fill-rule="evenodd" clip-rule="evenodd" d="M52.6375 31.0898C50.9355 31.0898 49.5508 32.3231 49.5508 33.8357C49.5508 35.3483 50.9259 36.5815 52.6375 36.5815C54.3395 36.5815 55.7242 35.3483 55.7242 33.8357C55.7242 32.3231 54.3395 31.0898 52.6375 31.0898Z" fill="white"/>
<path fill-rule="evenodd" clip-rule="evenodd" d="M34.9537 41.545C42.3772 36.0822 45.9158 27.8255 43.233 21.6305C42.0599 18.9232 40.002 16.688 37.4827 15.2813C35.7133 14.1059 33.6075 13.3641 31.3958 13.1136C25.9724 12.1598 19.4624 13.1425 13.0582 15.869C10.7023 16.871 8.50026 18.0272 6.51937 19.2893L4 20.879L5.5097 23.4418L10.2023 31.3902C10.2023 31.3902 11.6447 33.8374 11.6543 33.8278L14.2025 32.5849L14.5583 32.4115L26.2224 58.5113L27.3475 61.0163L29.963 60.1781L36.2807 58.1549L39.0501 57.2685L38.3193 54.4552L34.9537 41.545Z" fill="black"/>
<path fill-rule="evenodd" clip-rule="evenodd" d="M40.4136 22.8526C39.4809 20.7041 37.875 19.0181 35.7788 17.833C34.2594 16.8214 32.4997 16.3204 30.8554 16.1374C26.1821 15.3184 20.3644 16.0892 14.2391 18.6905C12.0563 19.6154 10.0177 20.6752 8.14258 21.8699L12.8352 29.8183C14.0371 29.2306 15.3353 28.6044 16.0373 28.2287L29.0091 57.2381L35.3268 55.2149L31.4324 40.2043C38.9039 35.6087 42.6734 28.0649 40.4136 22.8526Z" fill="white"/>
<path fill-rule="evenodd" clip-rule="evenodd" d="M106.776 30.4842L102.334 26.4763L104.516 24.1544L106.478 22.0637L104.67 19.8381C101.141 15.4833 95.4966 13.7395 89.5732 15.175C81.3323 17.1597 76.6878 24.27 78.5245 32.0643C79.2649 35.2051 81.2265 37.8932 84.0632 39.637C87.4481 41.7277 91.7079 42.2961 96.0447 41.246C100.622 40.138 103.987 38.2785 106.94 35.2244L109.305 32.7772L106.776 30.4842Z" fill="#0B0000"/>
<path fill-rule="evenodd" clip-rule="evenodd" d="M99.9462 28.5861C98.8308 29.9061 97.5518 31.1104 95.2825 31.6595C94.5228 31.8426 93.4939 32.016 92.84 31.9004L102.389 21.7167C99.6962 18.3928 95.2729 16.8513 90.263 18.0652C84.0318 19.5682 79.8201 24.7709 81.3778 31.3994C82.6279 36.7273 88.5129 39.9934 95.3402 38.3459C99.475 37.3439 102.35 35.7446 104.927 33.0758L99.9462 28.5861Z" fill="white"/>
<path fill-rule="evenodd" clip-rule="evenodd" d="M85.0334 13.4979L96.7264 0L103.198 9.68267L88.4183 17.6408L85.0334 13.4979Z" fill="#0B0000"/>
<path fill-rule="evenodd" clip-rule="evenodd" d="M96.2256 4.29663L99.6489 8.95973L89.8695 13.8155L89.1868 12.7846L96.2256 4.29663Z" fill="white"/>
<path fill-rule="evenodd" clip-rule="evenodd" d="M88.9778 28.7393C88.2758 27.4579 88.4104 25.8104 89.4586 24.6639C90.4682 23.5559 92.0068 23.238 93.3242 23.7486L88.9778 28.7393ZM89.4586 24.6639C88.42 25.8104 88.2758 27.4579 88.9778 28.7393L93.3242 23.7486C92.0068 23.238 90.4586 23.5559 89.4586 24.6639ZM95.7377 22.9971C93.5069 20.9642 90.0644 21.128 88.0354 23.3632C86.0064 25.5984 86.1699 29.0476 88.4008 31.0805C88.5835 31.2539 88.7854 31.3984 88.9874 31.5333L96.132 23.3825C95.9974 23.2476 95.8724 23.1224 95.7377 22.9971ZM88.9778 28.7393C88.2758 27.4579 88.4104 25.8104 89.4586 24.6639C90.4682 23.5559 92.0068 23.238 93.3242 23.7486L88.9778 28.7393Z" fill="black"/>
<path fill-rule="evenodd" clip-rule="evenodd" d="M35.5024 27.8149C34.9447 24.7415 30.9541 23.017 26.9539 25.1655L27.9539 28.6917L29.5309 33.8943L30.2521 36.2644C33.2523 34.3664 36.2717 32.0734 35.5024 27.8149ZM31.531 32.5166C31.0983 31.0907 30.1656 28.0173 30.1656 28.0173C30.1752 28.0365 29.9733 27.3525 29.7617 26.5914C30.6079 26.4372 31.4156 26.5143 32.0888 26.8419C32.4638 27.0249 33.1081 27.4392 33.2427 28.2292C33.56 29.9923 32.9542 31.2545 31.531 32.5166Z" fill="black"/>
<path fill-rule="evenodd" clip-rule="evenodd" d="M37.2158 62.8945C37.2254 62.9234 37.2351 62.9427 37.2447 62.9716C37.2447 62.9812 37.2543 62.9909 37.2543 63.0005C37.2447 62.962 37.2254 62.9331 37.2158 62.8945Z" fill="black"/>
<path fill-rule="evenodd" clip-rule="evenodd" d="M163.046 56.7092H165.922V57.1331H164.729V60.2644H164.239V57.1331H163.046V56.7092Z" fill="black"/>
<path fill-rule="evenodd" clip-rule="evenodd" d="M166.347 60.2644V56.7092H167.04L168.059 59.7152L169.069 56.7092H169.751V60.2644H169.299V58.164C169.299 58.087 169.299 57.9713 169.309 57.8076C169.309 57.6438 169.309 57.4607 169.309 57.268L168.299 60.2644H167.828L166.809 57.268V57.374C166.809 57.4607 166.809 57.5956 166.819 57.769C166.819 57.9424 166.828 58.0773 166.828 58.164V60.2644H166.347Z" fill="black"/>
</g>
<defs>
<filter id="filter0_d_78_763" x="0" y="0" width="177.001" height="71.0005" filterUnits="userSpaceOnUse" color-interpolation-filters="sRGB">
<feFlood flood-opacity="0" result="BackgroundImageFix"/>
<feColorMatrix in="SourceAlpha" type="matrix" values="0 0 0 0 0 0 0 0 0 0 0 0 0 0 0 0 0 0 127 0" result="hardAlpha"/>
<feOffset dy="4"/>
<feGaussianBlur stdDeviation="2"/>
<feComposite in2="hardAlpha" operator="out"/>
<feColorMatrix type="matrix" values="0 0 0 0 0 0 0 0 0 0 0 0 0 0 0 0 0 0 0.25 0"/>
<feBlend mode="normal" in2="BackgroundImageFix" result="effect1_dropShadow_78_763"/>
<feBlend mode="normal" in="SourceGraphic" in2="effect1_dropShadow_78_763" result="shape"/>
</filter>
</defs>
</svg>
